<svg xmlns="http://www.w3.org/2000/svg" xmlns:xlink="http://www.w3.org/1999/xlink" width="60" height="60" viewBox="0 0 60 60">
    <defs>
        <linearGradient id="c" x1="83.605%" x2="27.943%" y1="0%" y2="98.559%">
            <stop offset="0%" stop-color="#00F368"/>
            <stop offset="100%" stop-color="#01B93C"/>
        </linearGradient>
        <circle id="b" cx="25" cy="25" r="25"/>
        <filter id="a" width="132%" height="132%" x="-16%" y="-14%" filterUnits="objectBoundingBox">
            <feOffset dy="1" in="SourceAlpha" result="shadowOffsetOuter1"/>
            <feGaussianBlur in="shadowOffsetOuter1" result="shadowBlurOuter1" stdDeviation="2.5"/>
            <feColorMatrix in="shadowBlurOuter1" values="0 0 0 0 0.211764706 0 0 0 0 0.850980392 0 0 0 0 0.447058824 0 0 0 0.743517889 0"/>
        </filter>
        <filter id="d" width="150%" height="150%" x="-25%" y="-23%" filterUnits="objectBoundingBox">
            <feGaussianBlur in="SourceAlpha" result="shadowBlurInner1" stdDeviation="7.5"/>
            <feOffset in="shadowBlurInner1" result="shadowOffsetInner1"/>
            <feComposite in="shadowOffsetInner1" in2="SourceAlpha" k2="-1" k3="1" operator="arithmetic" result="shadowInnerInner1"/>
            <feColorMatrix in="shadowInnerInner1" values="0 0 0 0 1 0 0 0 0 1 0 0 0 0 1 0 0 0 0.5 0"/>
        </filter>
    </defs>
    <g fill="none" fill-rule="nonzero">
        <g transform="translate(5 4)">
            <use fill="#000" filter="url(#a)" xlink:href="#b"/>
            <use fill="url(#c)" fill-rule="evenodd" xlink:href="#b"/>
            <use fill="#000" filter="url(#d)" xlink:href="#b"/>
        </g>
        <path fill="#FFF" d="M43 28.75C43 23.367 37.63 19 31 19c-6.628 0-12 4.367-12 9.75 0 2.809 1.469 5.332 3.81 7.109A14.94 14.94 0 0 1 20.362 40c2.396 0 5.483-.314 7.86-1.777.895.176 1.821.275 2.778.275 6.628 0 12-4.365 12-9.748z"/>
    </g>
</svg>
