<svg xmlns="http://www.w3.org/2000/svg" xmlns:xlink="http://www.w3.org/1999/xlink" width="98" height="98" viewBox="0 0 98 98">
    <defs>
        <linearGradient id="c" x1="83.605%" x2="28.395%" y1="0%" y2="97.758%">
            <stop offset="0%" stop-color="#87AACF"/>
            <stop offset="100%" stop-color="#43668D"/>
        </linearGradient>
        <circle id="b" cx="40" cy="40" r="40"/>
        <filter id="a" width="135%" height="135%" x="-17.5%" y="-16.2%" filterUnits="objectBoundingBox">
            <feOffset dy="1" in="SourceAlpha" result="shadowOffsetOuter1"/>
            <feGaussianBlur in="shadowOffsetOuter1" result="shadowBlurOuter1" stdDeviation="4.5"/>
            <feColorMatrix in="shadowBlurOuter1" values="0 0 0 0 0.177398443 0 0 0 0 0.486027125 0 0 0 0 0.821109694 0 0 0 0.75 0"/>
        </filter>
        <filter id="d" width="141.2%" height="141.2%" x="-20.6%" y="-19.4%" filterUnits="objectBoundingBox">
            <feGaussianBlur in="SourceAlpha" result="shadowBlurInner1" stdDeviation="7.5"/>
            <feOffset in="shadowBlurInner1" result="shadowOffsetInner1"/>
            <feComposite in="shadowOffsetInner1" in2="SourceAlpha" k2="-1" k3="1" operator="arithmetic" result="shadowInnerInner1"/>
            <feColorMatrix in="shadowInnerInner1" values="0 0 0 0 1 0 0 0 0 1 0 0 0 0 1 0 0 0 0.5 0"/>
        </filter>
    </defs>
    <g fill="none" fill-rule="nonzero">
        <g transform="translate(9 8)">
            <use fill="#000" filter="url(#a)" xlink:href="#b"/>
            <use fill="url(#c)" fill-rule="evenodd" xlink:href="#b"/>
            <use fill="#000" filter="url(#d)" xlink:href="#b"/>
        </g>
        <path fill="#FFF" d="M49.339 61c1.33 0 1.33-1.867 1.33-2.667 0-1.333 1.332-2.666 2.663-2.666 1.331 0 3.594 2.266 5.325 4C59.987 61 59.987 61 61.319 61h3.993s2.663-.133 2.663-2.667c0-.8-.932-2.266-3.994-5.333-2.662-2.667-3.993-1.333 0-6.667 2.396-3.333 4.26-6.266 3.994-7.066-.267-.8-7.055-2.134-7.987-.934-2.662 4-3.195 4.934-3.994 6.667-1.33 2.667-1.464 4-2.662 4s-1.331-2.533-1.331-4c0-4.4.666-7.467-1.331-8h-3.993c-2.13 0-3.994 1.333-3.994 1.333s-1.597 1.334-1.331 1.334c.4 0 2.662-.534 2.662 1.333v2.667s0 5.333-1.33 5.333c-1.332 0-3.994-5.333-6.657-9.333-1.064-1.6-1.33-1.334-2.662-1.334h-3.993c-1.331 0-1.464.8-1.331 1.334 2.662 6.666 4.526 10.8 9.584 16.133 4.659 4.8 7.72 5.067 10.383 5.2h1.33z"/>
    </g>
</svg>
