<svg xmlns="http://www.w3.org/2000/svg" xmlns:xlink="http://www.w3.org/1999/xlink" width="148" height="148" viewBox="0 0 148 148">
    <defs>
        <linearGradient id="c" x1="83.605%" x2="28.395%" y1="0%" y2="97.758%">
            <stop offset="0%" stop-color="#B42CD9"/>
            <stop offset="100%" stop-color="#5B0173"/>
        </linearGradient>
        <circle id="b" cx="65" cy="65" r="65"/>
        <filter id="a" width="121.5%" height="121.5%" x="-10.8%" filterUnits="objectBoundingBox">
            <feOffset dy="1" in="SourceAlpha" result="shadowOffsetOuter1"/>
            <feGaussianBlur in="shadowOffsetOuter1" result="shadowBlurOuter1" stdDeviation="4.5"/>
            <feColorMatrix in="shadowBlurOuter1" values="0 0 0 0 0.615686275 0 0 0 0 0.137254902 0 0 0 0 0.749019608 0 0 0 0.754727129 0"/>
        </filter>
        <filter id="d" width="125.4%" height="125.4%" x="-12.7%" y="-11.9%" filterUnits="objectBoundingBox">
            <feGaussianBlur in="SourceAlpha" result="shadowBlurInner1" stdDeviation="7.5"/>
            <feOffset in="shadowBlurInner1" result="shadowOffsetInner1"/>
            <feComposite in="shadowOffsetInner1" in2="SourceAlpha" k2="-1" k3="1" operator="arithmetic" result="shadowInnerInner1"/>
            <feColorMatrix in="shadowInnerInner1" values="0 0 0 0 1 0 0 0 0 1 0 0 0 0 1 0 0 0 0.493857563 0"/>
        </filter>
    </defs>
    <g fill="none" fill-rule="nonzero">
        <g transform="translate(9 8)">
            <use fill="#000" filter="url(#a)" xlink:href="#b"/>
            <use fill="url(#c)" fill-rule="evenodd" xlink:href="#b"/>
            <use fill="#000" filter="url(#d)" xlink:href="#b"/>
        </g>
        <path fill="#FFF" d="M81.918 75.229l22.627 19.516A4.587 4.587 0 0 1 101.397 96H46.603a4.6 4.6 0 0 1-3.158-1.246l22.637-19.525L74 82.2l7.918-6.971zM74 77.6L43.455 51.255A4.587 4.587 0 0 1 46.603 50h54.794a4.6 4.6 0 0 1 3.158 1.246L74 77.6zm32 14.654L83.908 73.363 106 54.027v38.227zm-64 0V54.039l22.092 19.324L42 92.253z"/>
    </g>
</svg>
